<svg width="14" height="18" viewBox="0 0 14 18" fill="none" xmlns="http://www.w3.org/2000/svg">
<path d="M12.9873 0.589722H1.12512C0.880139 0.589722 0.681275 0.776724 0.681275 1.00746V16.6529C0.680928 16.9663 0.866962 17.2535 1.16309 17.3968C1.45939 17.5399 1.81586 17.5149 2.08615 17.332L7.05619 13.9789L12.0264 17.3319C12.2969 17.5144 12.653 17.5393 12.9491 17.3961C13.2451 17.253 13.4313 16.966 13.4313 16.6529V1.00746C13.4313 0.776724 13.2324 0.589722 12.9873 0.589722ZM12.5434 16.6527L7.31504 13.1253C7.16039 13.021 6.95234 13.021 6.79786 13.1253L1.56931 16.6529V1.4252H12.5434V16.6527Z" fill="white"/>
</svg>
