<svg width="22" height="21" viewBox="0 0 22 21" fill="none" xmlns="http://www.w3.org/2000/svg">
<path d="M9.73297 0.0393677C4.57313 0.0393677 0.375 3.99058 0.375 8.84694C0.375 13.7036 4.57313 17.6545 9.73297 17.6545C14.8931 17.6545 19.0909 13.7036 19.0909 8.84694C19.0909 3.99058 14.8931 0.0393677 9.73297 0.0393677ZM9.73297 16.0285C5.52563 16.0285 2.10263 12.8069 2.10263 8.84698C2.10263 4.8871 5.52563 1.66538 9.73297 1.66538C13.9403 1.66538 17.3633 4.88706 17.3633 8.84694C17.3633 12.8068 13.9403 16.0285 9.73297 16.0285Z" fill="#AEAEAE"/>
<path d="M21.3719 18.6515L16.4193 13.9903C16.0818 13.6727 15.5353 13.6727 15.1978 13.9903C14.8603 14.3076 14.8603 14.8226 15.1978 15.1399L20.1504 19.8011C20.3191 19.9599 20.54 20.0393 20.7612 20.0393C20.982 20.0393 21.2031 19.9599 21.3719 19.8011C21.7094 19.4838 21.7094 18.9689 21.3719 18.6515Z" fill="#AEAEAE"/>
</svg>
